<svg width="263" height="196" fill="none" xmlns="http://www.w3.org/2000/svg"><path d="M104.795 130.218c-5.881 16.109-9.807 35.435.553 37.294 10.359 1.858 8.974-21.268 20.707-26.952 11.734-5.683 30.887 6.074 37.442 7.437 6.555 1.364 13.811 3.736 13.203-13.175-.608-16.911-6.224-71.335-7.657-85.506-1.433-14.171-12.762-14.855-23.526-8.039-10.765 6.816-91.174 64.555-97.653 72.299-6.48 7.744-6.206 10.582-.042 11.687 6.164 1.106 25.36 6.956 35.82-.665 16.008-11.664 50.015-52.675 55.494-51.405 5.352 1.24-29.764 44.489-34.341 57.025zm-96.027 44.22c-4.604 2.694-9.377 6.548-7.263 9.048 2.115 2.5 6.369-3.318 10.308-2.353 3.94.964 6.199 7.581 7.5 9.207 1.3 1.627 2.57 3.635 5.777-.539 3.208-4.174 12.655-18.333 15.122-22.014 2.467-3.68-.113-6.091-4.045-6.592-3.932-.501-34.655-2.608-37.744-2.036-3.089.571-3.586 1.305-2.328 2.793 1.258 1.487 4.7 6.696 8.718 6.944 6.15.378 22.434-2.707 23.495-1.316 1.037 1.358-15.957 4.76-19.54 6.858zM247.169 20.414c.46 3.062 1.508 6.464 3.311 5.863 1.802-.6-.416-4.146.952-6.061 1.369-1.915 5.42-1.707 6.577-2.058 1.157-.35 2.512-.602.954-3.23-1.558-2.627-7.152-10.768-8.604-12.89-1.452-2.122-3.307-1.251-4.424.76-1.117 2.01-8.871 18.112-9.228 19.9-.358 1.787-.069 2.213 1.003 1.855 1.073-.357 4.621-1.09 5.62-3.201 1.529-3.233 3.374-12.672 4.352-12.944.956-.266-.872 9.624-.513 12.006z" fill="#5992E8"/></svg>